<?xml version="1.0" encoding="UTF-8"?><svg id="Layer_1" xmlns="http://www.w3.org/2000/svg" viewBox="0 0 289.28 16.99"><defs><style>.cls-1{fill:#ff1d25;}.cls-2{stroke:#fff;stroke-width:.25px;}</style></defs><path class="cls-2" d="M17,8.5c0,4.65-3.54,8.37-8.44,8.37S.12,13.14.12,8.5,3.67.12,8.56.12s8.44,3.73,8.44,8.37ZM16.18,8.5c0-4.16-3.17-7.59-7.61-7.59S.95,4.33.95,8.5s3.17,7.59,7.61,7.59,7.61-3.43,7.61-7.59Z"/><path class="cls-2" d="M20.92.45h.83v15.27h9.24v.83h-10.07V.45Z"/><path class="cls-2" d="M33.98.45h.83v16.1h-.83V.45Z"/><path class="cls-2" d="M38.72,8.5C38.72,3.85,42.26.12,47.16.12c1.93,0,3.7.62,5.1,1.75l-.53.6c-1.29-.99-2.87-1.56-4.58-1.56-4.44,0-7.61,3.43-7.61,7.59s3.17,7.59,7.61,7.59c1.56,0,3.04-.48,4.28-1.33v-3.29h-5.17v-.83h6v4.48c-1.4,1.13-3.17,1.75-5.1,1.75-4.9,0-8.44-3.73-8.44-8.37ZM46.26,6.36v-.83h6v.83h-6Z"/><path class="cls-2" d="M72.82,8.5c0,4.65-3.54,8.37-8.44,8.37s-8.44-3.73-8.44-8.37S59.49.12,64.38.12s8.44,3.73,8.44,8.37ZM72,8.5c0-4.16-3.17-7.59-7.61-7.59s-7.61,3.43-7.61,7.59,3.17,7.59,7.61,7.59,7.61-3.43,7.61-7.59Z"/><path class="cls-2" d="M83.91.45c1.63,0,2.97,1.33,2.97,2.97s-1.33,2.94-2.97,2.94h-7.17V.45h7.17ZM76.74,10.63h.83v5.91h-.83v-5.91ZM77.56,1.27v4.25h6.35c1.17,0,2.14-.97,2.14-2.12s-.97-2.14-2.14-2.14h-6.35Z"/><path class="cls-2" d="M106.29,8.5c0,4.65-3.54,8.37-8.44,8.37s-8.44-3.73-8.44-8.37S92.95.12,97.85.12s8.44,3.73,8.44,8.37ZM105.46,8.5c0-4.16-3.17-7.59-7.61-7.59s-7.61,3.43-7.61,7.59,3.17,7.59,7.61,7.59,7.61-3.43,7.61-7.59Z"/><path class="cls-2" d="M126.39,8.5c0,4.65-3.54,8.37-8.44,8.37s-8.44-3.73-8.44-8.37S113.05.12,117.95.12s8.44,3.73,8.44,8.37ZM125.56,8.5c0-4.16-3.17-7.59-7.61-7.59s-7.61,3.43-7.61,7.59,3.17,7.59,7.61,7.59,7.61-3.43,7.61-7.59Z"/><path class="cls-2" d="M130.3.45h.83v15.27h9.24v.83h-10.07V.45Z"/><path class="cls-1" d="M148.43,8.5c0-4.65,3.54-8.37,8.44-8.37,1.93,0,3.7.62,5.1,1.75l-.53.6c-1.29-.99-2.87-1.56-4.58-1.56-4.44,0-7.61,3.43-7.61,7.59s3.17,7.59,7.61,7.59c1.7,0,3.29-.57,4.58-1.56l.53.6c-1.4,1.13-3.17,1.75-5.1,1.75-4.9,0-8.44-3.73-8.44-8.37Z"/><path class="cls-1" d="M175.13,13.19l1.24,3.06-.76.3-1.03-2.53h-9.22l-1.01,2.53-.76-.3,1.24-3.06h10.3ZM170.09.45l3.31,8.46h-6.85l3.31-8.46h.23ZM167.77,8.08h4.42l-2.21-5.79-2.21,5.79Z"/><path class="cls-1" d="M179.13.45h.83v15.27h9.24v.83h-10.07V.45Z"/><path class="cls-1" d="M191.51,8.5c0-4.65,3.54-8.37,8.44-8.37,1.93,0,3.7.62,5.1,1.75l-.53.6c-1.29-.99-2.87-1.56-4.58-1.56-4.44,0-7.61,3.43-7.61,7.59s3.17,7.59,7.61,7.59c1.7,0,3.29-.57,4.58-1.56l.53.6c-1.4,1.13-3.17,1.75-5.1,1.75-4.9,0-8.44-3.73-8.44-8.37Z"/><path class="cls-1" d="M218.21.45h.83v11.27c0,2.83-2.32,5.15-5.38,5.15s-5.38-2.32-5.38-5.15V.45h.83v11.27c0,2.37,1.95,4.32,4.55,4.32s4.55-1.95,4.55-4.32V.45Z"/><path class="cls-1" d="M223.41.45h.83v15.27h9.24v.83h-10.07V.45Z"/><path class="cls-1" d="M246.17,13.19l1.24,3.06-.76.3-1.03-2.53h-9.22l-1.01,2.53-.76-.3,1.24-3.06h10.3ZM241.14.45l3.31,8.46h-6.85l3.31-8.46h.23ZM238.82,8.08h4.42l-2.21-5.79-2.21,5.79Z"/><path class="cls-1" d="M246.96.45h10.3v.83h-4.74v15.27h-.83V1.27h-4.74V.45Z"/><path class="cls-1" d="M274.37,8.5c0,4.65-3.54,8.37-8.44,8.37s-8.44-3.73-8.44-8.37,3.54-8.37,8.44-8.37,8.44,3.73,8.44,8.37ZM273.54,8.5c0-4.16-3.17-7.59-7.61-7.59s-7.61,3.43-7.61,7.59,3.17,7.59,7.61,7.59,7.61-3.43,7.61-7.59Z"/><path class="cls-1" d="M285.46.45c1.63,0,2.97,1.33,2.97,2.97s-1.33,2.94-2.97,2.94h-7.17V.45h7.17ZM289.28,16.13l-.71.41-2.78-5.08h-6.67v5.08h-.83v-5.91h8l2.99,5.5ZM279.11,1.27v4.25h6.35c1.17,0,2.14-.97,2.14-2.12s-.97-2.14-2.14-2.14h-6.35Z"/></svg>