<?xml version="1.0" encoding="UTF-8"?><svg id="Layer_1" xmlns="http://www.w3.org/2000/svg" viewBox="0 0 289.15 16.74"><defs><style>.cls-1{fill:#808285;}.cls-2{fill:#ff1d25;}</style></defs><path class="cls-1" d="M16.88,8.37c0,4.65-3.54,8.37-8.44,8.37S0,13.02,0,8.37,3.54,0,8.44,0s8.44,3.73,8.44,8.37ZM16.05,8.37c0-4.16-3.17-7.59-7.61-7.59S.83,4.21.83,8.37s3.17,7.59,7.61,7.59,7.61-3.43,7.61-7.59Z"/><path class="cls-1" d="M20.79.32h.83v15.27h9.24v.83h-10.07V.32Z"/><path class="cls-1" d="M33.85.32h.83v16.1h-.83V.32Z"/><path class="cls-1" d="M38.59,8.37c0-4.65,3.54-8.37,8.44-8.37,1.93,0,3.7.62,5.1,1.75l-.53.6c-1.29-.99-2.87-1.56-4.58-1.56-4.44,0-7.61,3.43-7.61,7.59s3.17,7.59,7.61,7.59c1.56,0,3.04-.48,4.28-1.33v-3.29h-5.17v-.83h6v4.48c-1.4,1.13-3.17,1.75-5.1,1.75-4.9,0-8.44-3.73-8.44-8.37ZM46.14,6.23v-.83h6v.83h-6Z"/><path class="cls-1" d="M72.7,8.37c0,4.65-3.54,8.37-8.44,8.37s-8.44-3.73-8.44-8.37S59.36,0,64.26,0s8.44,3.73,8.44,8.37ZM71.87,8.37c0-4.16-3.17-7.59-7.61-7.59s-7.61,3.43-7.61,7.59,3.17,7.59,7.61,7.59,7.61-3.43,7.61-7.59Z"/><path class="cls-1" d="M83.79.32c1.63,0,2.97,1.33,2.97,2.97s-1.33,2.94-2.97,2.94h-7.17V.32h7.17ZM76.61,10.51h.83v5.91h-.83v-5.91ZM77.44,1.15v4.25h6.35c1.17,0,2.14-.97,2.14-2.12s-.97-2.14-2.14-2.14h-6.35Z"/><path class="cls-1" d="M106.16,8.37c0,4.65-3.54,8.37-8.44,8.37s-8.44-3.73-8.44-8.37,3.54-8.37,8.44-8.37,8.44,3.73,8.44,8.37ZM105.34,8.37c0-4.16-3.17-7.59-7.61-7.59s-7.61,3.43-7.61,7.59,3.17,7.59,7.61,7.59,7.61-3.43,7.61-7.59Z"/><path class="cls-1" d="M126.26,8.37c0,4.65-3.54,8.37-8.44,8.37s-8.44-3.73-8.44-8.37,3.54-8.37,8.44-8.37,8.44,3.73,8.44,8.37ZM125.44,8.37c0-4.16-3.17-7.59-7.61-7.59s-7.61,3.43-7.61,7.59,3.17,7.59,7.61,7.59,7.61-3.43,7.61-7.59Z"/><path class="cls-1" d="M130.18.32h.83v15.27h9.24v.83h-10.07V.32Z"/><path class="cls-2" d="M148.3,8.37c0-4.65,3.54-8.37,8.44-8.37,1.93,0,3.7.62,5.1,1.75l-.53.6c-1.29-.99-2.87-1.56-4.58-1.56-4.44,0-7.61,3.43-7.61,7.59s3.17,7.59,7.61,7.59c1.7,0,3.29-.57,4.58-1.56l.53.6c-1.4,1.13-3.17,1.75-5.1,1.75-4.9,0-8.44-3.73-8.44-8.37Z"/><path class="cls-2" d="M175,13.06l1.24,3.06-.76.3-1.03-2.53h-9.22l-1.01,2.53-.76-.3,1.24-3.06h10.3ZM169.97.32l3.31,8.46h-6.85l3.31-8.46h.23ZM167.64,7.96h4.42l-2.21-5.79-2.21,5.79Z"/><path class="cls-2" d="M179.01.32h.83v15.27h9.24v.83h-10.07V.32Z"/><path class="cls-2" d="M191.38,8.37c0-4.65,3.54-8.37,8.44-8.37,1.93,0,3.7.62,5.1,1.75l-.53.6c-1.29-.99-2.87-1.56-4.58-1.56-4.44,0-7.61,3.43-7.61,7.59s3.17,7.59,7.61,7.59c1.7,0,3.29-.57,4.58-1.56l.53.6c-1.4,1.13-3.17,1.75-5.1,1.75-4.9,0-8.44-3.73-8.44-8.37Z"/><path class="cls-2" d="M218.08.32h.83v11.27c0,2.83-2.32,5.15-5.38,5.15s-5.38-2.32-5.38-5.15V.32h.83v11.27c0,2.37,1.95,4.32,4.55,4.32s4.55-1.95,4.55-4.32V.32Z"/><path class="cls-2" d="M223.28.32h.83v15.27h9.24v.83h-10.07V.32Z"/><path class="cls-2" d="M246.05,13.06l1.24,3.06-.76.3-1.03-2.53h-9.22l-1.01,2.53-.76-.3,1.24-3.06h10.3ZM241.01.32l3.31,8.46h-6.85l3.31-8.46h.23ZM238.69,7.96h4.42l-2.21-5.79-2.21,5.79Z"/><path class="cls-2" d="M246.83.32h10.3v.83h-4.74v15.27h-.83V1.15h-4.74V.32Z"/><path class="cls-2" d="M274.25,8.37c0,4.65-3.54,8.37-8.44,8.37s-8.44-3.73-8.44-8.37,3.54-8.37,8.44-8.37,8.44,3.73,8.44,8.37ZM273.42,8.37c0-4.16-3.17-7.59-7.61-7.59s-7.61,3.43-7.61,7.59,3.17,7.59,7.61,7.59,7.61-3.43,7.61-7.59Z"/><path class="cls-2" d="M285.33.32c1.63,0,2.97,1.33,2.97,2.97s-1.33,2.94-2.97,2.94h-7.17V.32h7.17ZM289.15,16l-.71.41-2.78-5.08h-6.67v5.08h-.83v-5.91h8l2.99,5.5ZM278.99,1.15v4.25h6.35c1.17,0,2.14-.97,2.14-2.12s-.97-2.14-2.14-2.14h-6.35Z"/></svg>