<svg xmlns="http://www.w3.org/2000/svg" width="289.15" height="16.74" viewBox="0 0 289.15 16.74"><path d="M16.88,8.37a8.24,8.24,0,0,1-8.44,8.37A8.24,8.24,0,0,1,0,8.37,8.25,8.25,0,0,1,8.44,0,8.25,8.25,0,0,1,16.88,8.37Zm-.83,0A7.47,7.47,0,0,0,8.44.78,7.47,7.47,0,0,0,.83,8.37,7.47,7.47,0,0,0,8.44,16,7.47,7.47,0,0,0,16.05,8.37Z"/><path d="M20.79.32h.83V15.59h9.24v.83H20.79Z"/><path d="M33.85.32h.83v16.1h-.83Z"/><path d="M38.59,8.37A8.25,8.25,0,0,1,47,0a8.09,8.09,0,0,1,5.11,1.75l-.53.6a7.57,7.57,0,0,0-12.19,6,7.59,7.59,0,0,0,11.89,6.25V11.34H46.14v-.83h6V15A8.09,8.09,0,0,1,47,16.74,8.24,8.24,0,0,1,38.59,8.37Zm7.55-2.14V5.4h6v.83Z"/><path d="M72.7,8.37a8.44,8.44,0,0,1-16.88,0,8.44,8.44,0,0,1,16.88,0Zm-.83,0a7.61,7.61,0,0,0-15.22,0,7.61,7.61,0,0,0,15.22,0Z"/><path d="M83.79.32a3,3,0,0,1,3,3,3,3,0,0,1-3,2.94H76.61V.32ZM76.61,10.51h.83v5.91h-.83Zm.83-9.36V5.4h6.35a2.13,2.13,0,1,0,0-4.25Z"/><path d="M106.16,8.37a8.44,8.44,0,0,1-16.87,0,8.44,8.44,0,0,1,16.87,0Zm-.82,0a7.62,7.62,0,0,0-15.23,0,7.62,7.62,0,0,0,15.23,0Z"/><path d="M126.26,8.37a8.44,8.44,0,0,1-16.87,0,8.44,8.44,0,0,1,16.87,0Zm-.82,0a7.62,7.62,0,0,0-15.23,0,7.62,7.62,0,0,0,15.23,0Z"/><path d="M130.18.32H131V15.59h9.24v.83H130.18Z"/><path d="M148.3,8.37A8.25,8.25,0,0,1,156.74,0a8.09,8.09,0,0,1,5.11,1.75l-.53.6a7.57,7.57,0,0,0-12.19,6A7.47,7.47,0,0,0,156.74,16a7.56,7.56,0,0,0,4.58-1.56l.53.59a8.09,8.09,0,0,1-5.11,1.75A8.24,8.24,0,0,1,148.3,8.37Z" fill="#ff1d25"/><path d="M175,13.06l1.24,3.06-.75.3-1-2.53h-9.22l-1,2.53-.76-.3,1.24-3.06ZM170,.32l3.31,8.46h-6.85L169.74.32ZM167.64,8h4.42l-2.21-5.8Z" fill="#ff1d25"/><path d="M179,.32h.82V15.59h9.25v.83H179Z" fill="#ff1d25"/><path d="M191.38,8.37A8.25,8.25,0,0,1,199.82,0a8.09,8.09,0,0,1,5.11,1.75l-.53.6a7.57,7.57,0,0,0-12.19,6A7.47,7.47,0,0,0,199.82,16a7.56,7.56,0,0,0,4.58-1.56l.53.59a8.09,8.09,0,0,1-5.11,1.75A8.24,8.24,0,0,1,191.38,8.37Z" fill="#ff1d25"/><path d="M218.08.32h.83V11.59a5.39,5.39,0,0,1-10.76,0V.32H209V11.59a4.56,4.56,0,0,0,9.1,0Z" fill="#ff1d25"/><path d="M223.28.32h.83V15.59h9.24v.83H223.28Z" fill="#ff1d25"/><path d="M246.05,13.06l1.24,3.06-.76.3-1-2.53h-9.22l-1,2.53-.75-.3,1.24-3.06ZM241,.32l3.31,8.46h-6.85L240.78.32ZM238.69,8h4.42l-2.21-5.8Z" fill="#ff1d25"/><path d="M246.83.32h10.31v.83H252.4V16.42h-.83V1.15h-4.74Z" fill="#ff1d25"/><path d="M274.25,8.37a8.44,8.44,0,0,1-16.88,0,8.44,8.44,0,0,1,16.88,0Zm-.83,0a7.61,7.61,0,0,0-15.22,0,7.61,7.61,0,0,0,15.22,0Z" fill="#ff1d25"/><path d="M285.33.32a3,3,0,0,1,3,3,3,3,0,0,1-3,2.94h-7.17V.32ZM289.15,16l-.71.42-2.78-5.08H279v5.08h-.83V10.51h8ZM279,1.15V5.4h6.34a2.14,2.14,0,0,0,2.14-2.11,2.15,2.15,0,0,0-2.14-2.14Z" fill="#ff1d25"/></svg>