<svg xmlns="http://www.w3.org/2000/svg" xmlns:xlink="http://www.w3.org/1999/xlink" viewBox="0 0 48.43 8.73"><defs><linearGradient id="a" x1="10.29" y1="18.18" x2="37.69" y2="-9.22" gradientUnits="userSpaceOnUse"><stop offset="0" stop-color="#ec1c24"/><stop offset="0.5" stop-color="#2e3191"/><stop offset="1" stop-color="#652d90"/></linearGradient></defs><path d="M3.93,2,7.44,4.83V.17h.43V5.76L3.93,2.52,0,5.76V.17H.43V4.83ZM7.47,8.24l-.27.32L3.93,5.89.67,8.56.4,8.24,3.93,5.31Z" fill="url(#a)"/><path d="M15.53.6H10.7V2.82h3.15v.43H10.27V.17h5.26Zm0,8H10.27V5.48h3.58v.43H10.7V8.13h4.83Z" fill="url(#a)"/><path d="M17.09.17h.43v8h4.82v.43H17.09Z" fill="url(#a)"/><path d="M26.06.17c5.46,0,5.46,8.39,0,8.39H23.9V.17Zm0,8c4.84,0,4.84-7.53,0-7.53H24.34V8.13Z" fill="url(#a)"/><path d="M40.65,4.37a4.4,4.4,0,0,1-8.8,0,4.4,4.4,0,0,1,8.8,0Zm-.43,0a4,4,0,0,0-7.94,0,4,4,0,0,0,7.94,0Z" fill="url(#a)"/><path d="M46.44.17a1.54,1.54,0,1,1,0,3.08H42.7V.17Zm2,8.18-.37.21L46.61,5.91H43.13V8.56H42.7V5.48h4.17ZM43.13.6V2.82h3.31a1.11,1.11,0,1,0,0-2.22Z" fill="url(#a)"/></svg>