<svg xmlns="http://www.w3.org/2000/svg" width="48.43" height="8.47" viewBox="0 0 48.43 8.47"><path d="M3.93,1.79,7.44,4.67V0h.43V5.59L3.93,2.35,0,5.59V0H.43V4.67ZM7.47,8.07,7.2,8.4,3.93,5.72.67,8.4.4,8.07,3.93,5.15Z" transform="translate(0 0.04)" fill="#b22952"/><path d="M15.53.43H10.7V2.65h3.15v.43H10.27V0h5.26Zm0,8H10.27V5.31h3.58v.44H10.7V8h4.83Z" transform="translate(0 0.04)" fill="#8f2755"/><path d="M17.09,0h.43V8h4.82V8.4H17.09Z" transform="translate(0 0.04)" fill="#6c2657"/><path d="M26.06,0c5.46,0,5.46,8.4,0,8.4H23.9V0Zm0,8C30.9,8,30.9.43,26.06.43H24.34V8Z" transform="translate(0 0.04)" fill="#55245a"/><path d="M46.44,0a1.54,1.54,0,1,1,0,3.08H42.7V0Zm2,8.18-.37.22L46.61,5.75H43.13V8.4H42.7V5.31h4.17ZM43.13.43V2.65h3.31a1.11,1.11,0,1,0,0-2.22Z" transform="translate(0 0.04)" fill="#27225e"/><path d="M36.25,0A4.24,4.24,0,1,0,40.48,4.2,4.23,4.23,0,0,0,36.25,0Zm0,8a3.74,3.74,0,0,1-3.82-3.8,3.82,3.82,0,0,1,7.64,0A3.74,3.74,0,0,1,36.25,8Z" transform="translate(0 0.04)" fill="#3e235c"/></svg>