<svg xmlns="http://www.w3.org/2000/svg" xmlns:xlink="http://www.w3.org/1999/xlink" width="163.14" height="25.94" viewBox="0 0 163.14 25.94"><defs><linearGradient id="a" x1="122.35" x2="122.35" y2="25.94" gradientUnits="userSpaceOnUse"><stop offset="0" stop-color="#8bc53f"/><stop offset="0.47" stop-color="#89c53f"/><stop offset="0.63" stop-color="#82c340"/><stop offset="0.75" stop-color="#77c142"/><stop offset="0.85" stop-color="#66bd44"/><stop offset="0.93" stop-color="#50b847"/><stop offset="1" stop-color="#37b34a"/></linearGradient></defs><rect width="81.57" height="25.94" fill="#231f20"/><path d="M16.23,10H13.12v7.16h-2.5V10H7.47L6.41,8.77H17.3Z" fill="#fff"/><path d="M28,17.17H25L20.47,12h4.25V10H20.09v7.16H17.54V8.77h9.65v4.48H24.52Z" fill="#fff"/><path d="M31.89,13.21,28,8.77h2.9l2.29,2.59,2.29-2.59h2.91l-3.94,4.44v4H31.89Z" fill="#fff"/><path d="M50.6,15.93l-1.08,1.24H42.43V8.77h2.51v7.16Z" fill="#fff"/><path d="M51.56,8.77h2.52v8.4H51.56Z" fill="#fff"/><path d="M54.8,8.77h2.46L60,14.37l2.76-5.6h2.46l-4.44,8.4H59.24Z" fill="#fff"/><path d="M74.06,15.93l1.08,1.24H65.73V8.77h9.43L74.09,10H68.25v2.35H74.6v1.23H68.25v2.34Z" fill="#fff"/><rect x="81.57" width="81.57" height="25.94" fill="url(#a)"/><path d="M103.36,17.17h-3L95.88,12h4.24V10H95.49v7.16H93V8.77h9.64v4.48H99.93Z" fill="#231f20"/><path d="M112.17,15.93l1.08,1.24h-9.4V8.77h9.42L112.21,10h-5.85v2.35h6.35v1.23h-6.35v2.34Z" fill="#231f20"/><path d="M116.52,14.19v3H114V8.77h9.29v5.42Zm0-4.18v3h4.28V10Z" fill="#231f20"/><path d="M132.55,15.93l-1.08,1.24h-7.09V8.77h2.5v7.16Z" fill="#231f20"/><path d="M134,17.17V15.41h1.71v1.76Z" fill="#231f20"/><path d="M137.63,8.77h2.51v8.4h-2.51Z" fill="#231f20"/><path d="M150.69,10h-3.11v7.16h-2.5V10h-3.15l-1.06-1.24h10.89Z" fill="#231f20"/></svg>