<svg xmlns="http://www.w3.org/2000/svg" width="427" height="57.47" viewBox="0 0 427 57.47"><path d="M68.48.5h351a7.06,7.06,0,0,1,7.06,7.06V49.91A7.06,7.06,0,0,1,419.44,57h-351" fill="#989ba1" stroke="#989ba1" stroke-miterlimit="10"/><path d="M59.44,26.39l.11,2.3C59.55,27.91,59.51,27.15,59.44,26.39Z" fill="#989ba1"/><path d="M22.36,26.26S15.41,51.87,43.27,52.1A25,25,0,0,0,59.42,31.25c.07-.67.09-1.35.11-2l0-.53c0-.78,0-1.54-.11-2.3C52.08,55.37,19.52,44,22.36,26.26Z" fill="#989ba1"/><path d="M36.76,16.75s-25.94-7.24-25.54,21a25,25,0,0,0,6,9c.1.11.23.21.33.31A27.59,27.59,0,0,0,20,49.08l.37.28A25.26,25.26,0,0,0,23.09,51l.84.41a24.64,24.64,0,0,0,2.5,1l.62.23a23.83,23.83,0,0,0,3.11.74l1,.15a24.17,24.17,0,0,0,3.29.25h.13q1.24,0,2.46-.12c-29.11-6.95-18-39.49-.24-36.9Z" fill="#929497"/><path d="M46.87,30.17S53,4.29,25.39,5.45A24.75,24.75,0,0,0,9.82,32.09c5.82-29.27,38.94-19.8,37.05-1.92ZM33.61,41.3S59.59,44.69,58,20A24.86,24.86,0,0,0,30,4.12C59,7.68,51.46,41.56,33.61,41.3Zm8.16-12.61a7,7,0,1,1-7-7h0A7,7,0,0,1,41.77,28.69Z" fill="#989ba1"/><path d="M85,38.46q-3.53,0-5-1.43c-1-1-1.46-2.57-1.46-4.88V21.69H73.46V19.25h5.11v-5l3.14-1.36v6.37h7.15v2.44H81.71V32.15a4.29,4.29,0,0,0,.8,3,3.76,3.76,0,0,0,2.81.85h3.54v2.51Z" fill="#fff"/><path d="M94.86,19.25h2.86L98,23a6.59,6.59,0,0,1,2.42-3.12,6.81,6.81,0,0,1,3.87-1.08,7,7,0,0,1,4.1,1.2V23.2A6.73,6.73,0,0,0,104,21.69a5.49,5.49,0,0,0-4.46,1.86A8.06,8.06,0,0,0,98,28.87v9.52H94.86Z" fill="#fff"/><path d="M111.33,43h1.86a2.82,2.82,0,0,0,2.14-.79,14,14,0,0,0,2-4.17L110,19.25h3.33l5.68,15,5.58-15h3.34l-5,13-1,2.68-.21.54c0,.13-.12.3-.19.5l-.35,1-.2.54c-.45,1.24-.87,2.34-1.26,3.27a19.81,19.81,0,0,1-1,2.13,5.06,5.06,0,0,1-4.73,2.77h-2.53Z" fill="#fff"/><path d="M159.18,38.53a5.43,5.43,0,0,1-4.37-1.82,7.69,7.69,0,0,1-1.55-5.12V14.26h-5V11.8h8.19V31.59a5.45,5.45,0,0,0,.78,3.18,2.65,2.65,0,0,0,2.29,1.09h3.68v2.67Z" fill="#fff"/><path d="M178.31,38.53a5.43,5.43,0,0,1-4.37-1.82,7.69,7.69,0,0,1-1.55-5.12V21.71h-4.18V19.25h7.33V31.59a5.37,5.37,0,0,0,.79,3.18,2.63,2.63,0,0,0,2.29,1.09h3.67v2.67Zm-5.74-22.75a.45.45,0,0,1-.52-.51v-3a.45.45,0,0,1,.52-.51H175a.45.45,0,0,1,.51.51v3a.45.45,0,0,1-.51.51Z" fill="#fff"/><path d="M183.82,19.25h3.26l5.56,16.06,5.57-16.06h3.26l-6.8,19.14h-4Z" fill="#fff"/><path d="M212.18,38.89a9.13,9.13,0,0,1-7-2.66A10.12,10.12,0,0,1,202.71,29a12.8,12.8,0,0,1,1-5.16,8,8,0,0,1,7.85-5,7.44,7.44,0,0,1,5.94,2.45A10.07,10.07,0,0,1,219.61,28v1.54H206v.11a7,7,0,0,0,1.57,4.76,5.87,5.87,0,0,0,4.65,1.78,10.84,10.84,0,0,0,3.45-.56,23.41,23.41,0,0,0,3.22-1.37v3.13a22.47,22.47,0,0,1-3.29,1.06A14.4,14.4,0,0,1,212.18,38.89Zm4.29-11.78a8.15,8.15,0,0,0-.48-2.87,4.29,4.29,0,0,0-1.53-2,4.69,4.69,0,0,0-2.78-.75,5,5,0,0,0-4.74,2.8,7.94,7.94,0,0,0-.83,2.85Z" fill="#fff"/><path d="M248.12,38.89A7.43,7.43,0,0,1,242,36.3q-2.12-2.59-2.11-7.45T242,21.39a8.42,8.42,0,0,1,12.16,0q2.12,2.58,2.11,7.49t-2.1,7.44A7.36,7.36,0,0,1,248.12,38.89Zm0-2.67a4.07,4.07,0,0,0,3.6-1.91A10.09,10.09,0,0,0,253,28.82a10,10,0,0,0-1.25-5.46,4.38,4.38,0,0,0-7.22,0,10,10,0,0,0-1.25,5.46,10,10,0,0,0,1.26,5.49A4.1,4.1,0,0,0,248.1,36.22Z" fill="#fff"/><path d="M259.37,19.25h2.84l.3,2.87a5.88,5.88,0,0,1,5.63-3.33q5.85,0,5.86,7.74V38.39h-3.16V26.53a6.39,6.39,0,0,0-.9-3.79,3.24,3.24,0,0,0-2.78-1.22,4.07,4.07,0,0,0-3.44,1.58,7.29,7.29,0,0,0-1.21,4.47V38.39h-3.14Z" fill="#fff"/><path d="M298.16,19.25H301l.31,3.74a6.59,6.59,0,0,1,2.42-3.12,6.81,6.81,0,0,1,3.87-1.08,7,7,0,0,1,4.1,1.2V23.2a6.73,6.73,0,0,0-4.37-1.51,5.47,5.47,0,0,0-4.46,1.86,8.06,8.06,0,0,0-1.56,5.32v9.52h-3.16Z" fill="#fff"/><path d="M323.07,38.89a9.13,9.13,0,0,1-6.95-2.66A10.12,10.12,0,0,1,313.6,29a12.8,12.8,0,0,1,1-5.16,8,8,0,0,1,7.85-5,7.42,7.42,0,0,1,5.94,2.45A10.07,10.07,0,0,1,330.5,28v1.54H316.88v.11a7,7,0,0,0,1.57,4.76,5.87,5.87,0,0,0,4.65,1.78,10.84,10.84,0,0,0,3.45-.56,23.41,23.41,0,0,0,3.22-1.37v3.13a22.09,22.09,0,0,1-3.29,1.06A14.4,14.4,0,0,1,323.07,38.89Zm4.29-11.78a8.15,8.15,0,0,0-.48-2.87,4.29,4.29,0,0,0-1.53-2,4.69,4.69,0,0,0-2.78-.75,5,5,0,0,0-4.74,2.8,8.15,8.15,0,0,0-.83,2.85Z" fill="#fff"/><path d="M333.21,19.25h2.85l.31,2.44a5.51,5.51,0,0,1,5.15-2.9,6.35,6.35,0,0,1,5.41,2.68,12.19,12.19,0,0,1,2,7.33,12.19,12.19,0,0,1-2,7.39,6.36,6.36,0,0,1-5.39,2.7A5.38,5.38,0,0,1,336.37,36v9.69h-3.16Zm7.9,17q4.49,0,4.49-7.38t-4.49-7.38a3.89,3.89,0,0,0-3.52,1.91,10.19,10.19,0,0,0-1.22,5.45,10.28,10.28,0,0,0,1.22,5.48A3.94,3.94,0,0,0,341.11,36.22Z" fill="#fff"/><path d="M362.48,38.53a5.43,5.43,0,0,1-4.37-1.82,7.69,7.69,0,0,1-1.55-5.12V14.26h-5V11.8h8.19V31.59a5.45,5.45,0,0,0,.78,3.18,2.65,2.65,0,0,0,2.29,1.09h3.68v2.67Z" fill="#fff"/><path d="M377.4,38.85a2.68,2.68,0,0,1-2-.8,3.09,3.09,0,0,1,0-4.17,2.81,2.81,0,0,1,3.93,0,3.12,3.12,0,0,1,0,4.17A2.7,2.7,0,0,1,377.4,38.85Z" fill="#fff"/><path d="M400.09,38.53a5.43,5.43,0,0,1-4.37-1.82,7.69,7.69,0,0,1-1.54-5.12V21.71H390V19.25h7.33V31.59a5.37,5.37,0,0,0,.79,3.18,2.63,2.63,0,0,0,2.29,1.09h3.67v2.67Zm-5.74-22.75a.46.46,0,0,1-.52-.51v-3a.46.46,0,0,1,.52-.51h2.46a.45.45,0,0,1,.51.51v3a.45.45,0,0,1-.51.51Z" fill="#fff"/><path d="M417.68,38.46q-3.53,0-5-1.43c-1-1-1.46-2.57-1.46-4.88V21.69h-5.11V19.25h5.11v-5l3.14-1.36v6.37h7.15v2.44h-7.15V32.15a4.23,4.23,0,0,0,.81,3A3.74,3.74,0,0,0,418,36h3.54v2.51Z" fill="#fff"/><path d="M68.48.5H7.56A7.06,7.06,0,0,0,.5,7.56V49.91A7.06,7.06,0,0,0,7.56,57H68.48" fill="none" stroke="#989ba1" stroke-miterlimit="10"/></svg>