<svg xmlns="http://www.w3.org/2000/svg" width="443.59" height="57.47" viewBox="0 0 443.59 57.47"><path d="M68.48.5H435.7a7.23,7.23,0,0,1,7.39,7.06V49.91A7.23,7.23,0,0,1,435.7,57H68.48" fill="#989ba1" stroke="#989ba1" stroke-miterlimit="10"/><path d="M59.44,26.39l.11,2.3C59.55,27.91,59.51,27.15,59.44,26.39Z" fill="#989ba1"/><path d="M22.36,26.26S15.41,51.87,43.27,52.1A25,25,0,0,0,59.42,31.25c.07-.67.09-1.35.11-2l0-.53c0-.78,0-1.54-.11-2.3C52.08,55.37,19.52,44,22.36,26.26Z" fill="#989ba1"/><path d="M36.76,16.75s-25.94-7.24-25.54,21a25,25,0,0,0,6,9c.1.11.23.21.33.31A27.59,27.59,0,0,0,20,49.08l.37.28A25.26,25.26,0,0,0,23.09,51l.84.41a24.64,24.64,0,0,0,2.5,1l.62.23a23.83,23.83,0,0,0,3.11.74l1,.15a24.17,24.17,0,0,0,3.29.25h.13q1.24,0,2.46-.12c-29.11-6.95-18-39.49-.24-36.9Z" fill="#929497"/><path d="M46.87,30.17S53,4.29,25.39,5.45A24.75,24.75,0,0,0,9.82,32.09c5.82-29.27,38.94-19.8,37.05-1.92ZM33.61,41.3S59.59,44.69,58,20A24.86,24.86,0,0,0,30,4.12C59,7.68,51.46,41.56,33.61,41.3Zm8.16-12.61a7,7,0,1,1-7-7h0A7,7,0,0,1,41.77,28.69Z" fill="#989ba1"/><path d="M93.3,38.46q-3.51,0-5-1.43c-1-1-1.46-2.57-1.46-4.88V21.69H81.75V19.25h5.11v-5L90,12.88v6.37h7.14v2.44H90V32.15a4.24,4.24,0,0,0,.8,3,3.74,3.74,0,0,0,2.8.85h3.54v2.51Z" fill="#fff"/><path d="M103.16,19.25H106l.31,3.74a6.53,6.53,0,0,1,2.42-3.12,6.77,6.77,0,0,1,3.87-1.08,7,7,0,0,1,4.1,1.2V23.2a6.74,6.74,0,0,0-4.38-1.51,5.5,5.5,0,0,0-4.46,1.86,8.11,8.11,0,0,0-1.55,5.32v9.52h-3.16Z" fill="#fff"/><path d="M119.62,43h1.86a2.79,2.79,0,0,0,2.14-.79,13.48,13.48,0,0,0,2-4.17l-7.4-18.83h3.34l5.67,15,5.59-15h3.33l-5,13c-.4,1-.75,1.92-1,2.68l-.22.54c0,.13-.11.3-.19.5s-.19.54-.35,1l-.2.54c-.44,1.24-.86,2.34-1.26,3.27a18,18,0,0,1-1,2.13,5,5,0,0,1-4.73,2.77h-2.53Z" fill="#fff"/><path d="M167.47,38.53a5.45,5.45,0,0,1-4.37-1.82,7.69,7.69,0,0,1-1.54-5.12V14.26h-5V11.8h8.18V31.59a5.37,5.37,0,0,0,.79,3.18,2.64,2.64,0,0,0,2.29,1.09h3.67v2.67Z" fill="#fff"/><path d="M186.6,38.53a5.45,5.45,0,0,1-4.37-1.82,7.69,7.69,0,0,1-1.54-5.12V21.71H176.5V19.25h7.33V31.59a5.37,5.37,0,0,0,.79,3.18,2.64,2.64,0,0,0,2.29,1.09h3.67v2.67Zm-5.74-22.75a.45.45,0,0,1-.51-.51v-3a.45.45,0,0,1,.51-.51h2.46a.45.45,0,0,1,.51.51v3a.45.45,0,0,1-.51.51Z" fill="#fff"/><path d="M192.11,19.25h3.27l5.55,16.06,5.57-16.06h3.27L203,38.39h-4.05Z" fill="#fff"/><path d="M220.47,38.89a9.15,9.15,0,0,1-6.95-2.66A10.12,10.12,0,0,1,211,29a13,13,0,0,1,1-5.16,8.07,8.07,0,0,1,7.86-5,7.44,7.44,0,0,1,5.94,2.45A10.13,10.13,0,0,1,227.91,28v1.54H214.29v.11a6.9,6.9,0,0,0,1.57,4.76,5.87,5.87,0,0,0,4.65,1.78,10.83,10.83,0,0,0,3.44-.56,23.41,23.41,0,0,0,3.22-1.37v3.13a22.09,22.09,0,0,1-3.29,1.06A14.4,14.4,0,0,1,220.47,38.89Zm4.29-11.78a8.15,8.15,0,0,0-.48-2.87,4.29,4.29,0,0,0-1.53-2,4.66,4.66,0,0,0-2.77-.75,5.22,5.22,0,0,0-2.92.76,5.17,5.17,0,0,0-1.83,2,8.14,8.14,0,0,0-.82,2.85Z" fill="#fff"/><path d="M256.41,38.89a7.44,7.44,0,0,1-6.11-2.59q-2.12-2.59-2.11-7.45t2.12-7.46a8.42,8.42,0,0,1,12.16,0q2.11,2.58,2.11,7.49t-2.1,7.44A7.38,7.38,0,0,1,256.41,38.89Zm0-2.67a4.07,4.07,0,0,0,3.6-1.91,10,10,0,0,0,1.26-5.49A9.89,9.89,0,0,0,260,23.36a4.37,4.37,0,0,0-7.21,0,9.89,9.89,0,0,0-1.26,5.46,9.91,9.91,0,0,0,1.27,5.49A4.07,4.07,0,0,0,256.39,36.22Z" fill="#fff"/><path d="M267.66,19.25h2.84l.31,2.87a5.87,5.87,0,0,1,5.62-3.33q5.86,0,5.86,7.74V38.39h-3.16V26.53a6.39,6.39,0,0,0-.9-3.79,3.21,3.21,0,0,0-2.77-1.22A4.09,4.09,0,0,0,272,23.1a7.29,7.29,0,0,0-1.2,4.47V38.39h-3.15Z" fill="#fff"/><path d="M306.46,19.25h2.85l.31,3.74A6.53,6.53,0,0,1,312,19.87a6.77,6.77,0,0,1,3.87-1.08A7,7,0,0,1,320,20V23.2a6.74,6.74,0,0,0-4.38-1.51,5.5,5.5,0,0,0-4.46,1.86,8.06,8.06,0,0,0-1.55,5.32v9.52h-3.16Z" fill="#fff"/><path d="M331.36,38.89a9.11,9.11,0,0,1-6.94-2.66A10.07,10.07,0,0,1,321.9,29a12.8,12.8,0,0,1,1-5.16,8,8,0,0,1,7.85-5,7.44,7.44,0,0,1,5.94,2.45A10.13,10.13,0,0,1,338.8,28v1.54H325.18v.11a6.9,6.9,0,0,0,1.57,4.76,5.87,5.87,0,0,0,4.65,1.78,10.83,10.83,0,0,0,3.44-.56,23.41,23.41,0,0,0,3.22-1.37v3.13a22.09,22.09,0,0,1-3.29,1.06A14.4,14.4,0,0,1,331.36,38.89Zm4.29-11.78a8.15,8.15,0,0,0-.48-2.87,4.22,4.22,0,0,0-1.53-2,4.66,4.66,0,0,0-2.77-.75,5.24,5.24,0,0,0-2.92.76,5.17,5.17,0,0,0-1.83,2,8.14,8.14,0,0,0-.82,2.85Z" fill="#fff"/><path d="M341.5,19.25h2.86l.31,2.44a5.49,5.49,0,0,1,5.14-2.9,6.35,6.35,0,0,1,5.41,2.68,12.12,12.12,0,0,1,2,7.33,12.19,12.19,0,0,1-2,7.39,6.33,6.33,0,0,1-5.39,2.7A5.37,5.37,0,0,1,344.67,36v9.69H341.5Zm7.9,17q4.5,0,4.5-7.38t-4.5-7.38a3.91,3.91,0,0,0-3.52,1.91,10.19,10.19,0,0,0-1.21,5.45,10.19,10.19,0,0,0,1.22,5.48A3.91,3.91,0,0,0,349.4,36.22Z" fill="#fff"/><path d="M370.77,38.53a5.43,5.43,0,0,1-4.37-1.82,7.69,7.69,0,0,1-1.54-5.12V14.26h-5V11.8H368V31.59a5.37,5.37,0,0,0,.79,3.18,2.63,2.63,0,0,0,2.29,1.09h3.67v2.67Z" fill="#fff"/><path d="M385.7,38.85a2.7,2.7,0,0,1-2-.8,3.12,3.12,0,0,1,0-4.17,2.81,2.81,0,0,1,3.93,0,3.09,3.09,0,0,1,0,4.17A2.68,2.68,0,0,1,385.7,38.85Z" fill="#fff"/><path d="M408.38,38.53A5.41,5.41,0,0,1,404,36.71a7.69,7.69,0,0,1-1.55-5.12V21.71h-4.19V19.25h7.33V31.59a5.44,5.44,0,0,0,.79,3.18,2.64,2.64,0,0,0,2.29,1.09h3.68v2.67Zm-5.74-22.75a.45.45,0,0,1-.51-.51v-3a.45.45,0,0,1,.51-.51h2.46a.45.45,0,0,1,.51.51v3a.45.45,0,0,1-.51.51Z" fill="#fff"/><path d="M426,38.46q-3.53,0-5-1.43c-1-1-1.46-2.57-1.46-4.88V21.69h-5.11V19.25h5.11v-5l3.15-1.36v6.37h7.14v2.44h-7.14V32.15a4.29,4.29,0,0,0,.8,3,3.75,3.75,0,0,0,2.8.85h3.54v2.51Z" fill="#fff"/><path d="M68.48.5H7.56A7.06,7.06,0,0,0,.5,7.56V49.91A7.06,7.06,0,0,0,7.56,57H68.48" fill="none" stroke="#989ba1" stroke-miterlimit="10"/></svg>